<svg width="36" height="28" viewBox="0 0 36 28" fill="none" xmlns="http://www.w3.org/2000/svg">
<path d="M29.3179 26.9059H5.77849C2.70713 26.9059 0.20874 24.4075 0.20874 21.3361V6.4756C0.20874 3.40463 2.70752 0.905853 5.77849 0.905853H29.3179C32.3888 0.905853 34.8872 3.40463 34.8872 6.4756V21.3361C34.8872 24.4075 32.3888 26.9059 29.3179 26.9059ZM5.77849 2.53459C3.60531 2.53459 1.83747 4.30242 1.83747 6.4756V21.3361C1.83747 23.5093 3.60531 25.2775 5.77849 25.2775H29.3179C31.491 25.2775 33.2589 23.5093 33.2589 21.3361V6.4756C33.2589 4.30242 31.491 2.53459 29.3179 2.53459H5.77849Z" fill="#7B6D7B" stroke="#7B6D7B" stroke-width="0.3"/>
<path d="M4.46408 6.55306C8.62704 10.6097 12.79 14.6659 16.953 18.7225C17.729 19.4785 18.92 18.2902 18.1428 17.5327C13.9799 13.4764 9.8169 9.41981 5.65394 5.36359C4.87791 4.60721 3.6869 5.79591 4.46408 6.55306Z" fill="#7B6D7B" stroke="#7B6D7B" stroke-width="0.3"/>
<path d="M18.1428 18.7225C22.3058 14.6663 26.4688 10.6097 30.6317 6.55342C31.4085 5.79628 30.2183 4.60719 29.4419 5.36357C25.2789 9.41979 21.1159 13.4764 16.953 17.5326C16.1762 18.2898 17.3664 19.4789 18.1428 18.7225Z" fill="#7B6D7B" stroke="#7B6D7B" stroke-width="0.3"/>
<path d="M30.5858 21.5939C27.8158 18.9668 25.0454 16.3401 22.2753 13.713C21.4897 12.9682 20.2979 14.1557 21.0855 14.9029C23.8555 17.5299 26.626 20.1566 29.396 22.7837C30.1817 23.5285 31.3734 22.3406 30.5858 21.5939Z" fill="#7B6D7B" stroke="#7B6D7B" stroke-width="0.3"/>
<path d="M5.77499 22.7834C8.54503 20.1563 11.3155 17.5296 14.0855 14.9025C14.8727 14.1557 13.6817 12.9674 12.8956 13.7126C10.1256 16.3397 7.35517 18.9664 4.58513 21.5935C3.79793 22.3402 4.98894 23.5289 5.77499 22.7834Z" fill="#7B6D7B" stroke="#7B6D7B" stroke-width="0.3"/>
</svg>
