<svg width="35" height="27" viewBox="0 0 35 28" fill="none" xmlns="http://www.w3.org/2000/svg">
<path d="M29.3179 26.9059H5.77855C2.70719 26.9059 0.208801 24.4075 0.208801 21.3361V6.47561C0.208801 3.40464 2.70758 0.90586 5.77855 0.90586H29.3179C32.3889 0.90586 34.8873 3.40464 34.8873 6.47561V21.3361C34.8873 24.4075 32.3889 26.9059 29.3179 26.9059ZM5.77855 2.53459C3.60537 2.53459 1.83753 4.30242 1.83753 6.47561V21.3361C1.83753 23.5093 3.60537 25.2775 5.77855 25.2775H29.3179C31.4911 25.2775 33.2589 23.5093 33.2589 21.3361V6.47561C33.2589 4.30242 31.4911 2.53459 29.3179 2.53459H5.77855Z" fill="#717171"/>
<path d="M4.46421 6.55306C8.62717 10.6097 12.7901 14.6659 16.9531 18.7225C17.7291 19.4785 18.9201 18.2902 18.1429 17.5327C13.98 13.4764 9.81702 9.41982 5.65406 5.36359C4.87804 4.60721 3.68702 5.79591 4.46421 6.55306Z" fill="#717171"/>
<path d="M18.143 18.7225C22.3059 14.6663 26.4689 10.6097 30.6318 6.55344C31.4086 5.79629 30.2184 4.60721 29.442 5.36358C25.279 9.41981 21.1161 13.4764 16.9531 17.5326C16.1763 18.2898 17.3666 19.4789 18.143 18.7225Z" fill="#717171"/>
<path d="M30.586 21.5939C27.816 18.9668 25.0456 16.3401 22.2755 13.713C21.4899 12.9682 20.2981 14.1557 21.0857 14.9029C23.8557 17.5299 26.6261 20.1566 29.3962 22.7837C30.1818 23.5286 31.3736 22.3406 30.586 21.5939Z" fill="#717171"/>
<path d="M5.77511 22.7834C8.54515 20.1563 11.3156 17.5296 14.0856 14.9025C14.8728 14.1557 13.6818 12.9674 12.8958 13.7126C10.1257 16.3397 7.3553 18.9664 4.58525 21.5935C3.79805 22.3402 4.98907 23.5289 5.77511 22.7834Z" fill="#717171"/>
</svg>
