<svg width="15" height="25" viewBox="0 0 15 25" fill="none" xmlns="http://www.w3.org/2000/svg">
<path d="M-5.61339e-05 12.4928C-5.61339e-05 12.133 0.143876 11.8019 0.417326 11.5429L11.8163 0.374208C12.0754 0.129534 12.392 0 12.7662 0C13.5002 0 14.0759 0.561312 14.0759 1.30973C14.0759 1.66954 13.932 2.00057 13.7017 2.24525L3.22389 12.4928L13.7017 22.7404C13.932 22.985 14.0759 23.3016 14.0759 23.6759C14.0759 24.4243 13.5002 24.9856 12.7662 24.9856C12.392 24.9856 12.0754 24.856 11.8163 24.5971L0.417326 13.4427C0.143876 13.1693 -5.61339e-05 12.8526 -5.61339e-05 12.4928Z" fill="#7B6D7B"/>
</svg>
