<svg width="15" height="25" viewBox="0 0 15 25" fill="none" xmlns="http://www.w3.org/2000/svg">
<path d="M14.076 12.4928C14.076 12.133 13.9321 11.8019 13.6586 11.5429L2.25964 0.374208C2.00057 0.129534 1.68394 0 1.30973 0C0.575705 0 0 0.561312 0 1.30973C0 1.66954 0.143926 2.00057 0.374208 2.24525L10.852 12.4928L0.374208 22.7404C0.143926 22.985 0 23.3016 0 23.6759C0 24.4243 0.575705 24.9856 1.30973 24.9856C1.68394 24.9856 2.00057 24.856 2.25964 24.5971L13.6586 13.4427C13.9321 13.1693 14.076 12.8526 14.076 12.4928Z" fill="#7B6D7B"/>
</svg>
