<svg width="35" height="24" viewBox="0 0 35 24" fill="none" xmlns="http://www.w3.org/2000/svg">
<path d="M30.7248 0H4.27517C1.91795 0 0 1.91795 0 4.27517V19.4858C0 21.843 1.91795 23.761 4.27517 23.761H30.7248C33.0821 23.761 35 21.843 35 19.4858V4.27564C35.0005 1.91795 33.0825 0 30.7248 0ZM28.6358 2.78907L17.5 9.96347L6.36419 2.78907H28.6358ZM30.7248 20.9724H4.27517C3.45565 20.9724 2.78907 20.3053 2.78907 19.4863V4.35466L16.6396 13.2611C16.6582 13.2727 16.6782 13.2806 16.6972 13.2913C16.7172 13.3025 16.7377 13.3131 16.7581 13.3234C16.8655 13.3787 16.9761 13.4233 17.0891 13.4526C17.1007 13.4559 17.1123 13.4572 17.1239 13.46C17.2481 13.4893 17.3736 13.5074 17.4991 13.5074H17.5C17.5009 13.5074 17.5019 13.5074 17.5019 13.5074C17.6274 13.5074 17.7529 13.4898 17.877 13.46C17.8886 13.4572 17.9002 13.4559 17.9119 13.4526C18.0248 13.4233 18.135 13.3787 18.2428 13.3234C18.2633 13.3131 18.2837 13.3025 18.3037 13.2913C18.3228 13.2806 18.3428 13.2727 18.3614 13.2611L32.2119 4.35466V19.4858C32.2114 20.3053 31.5443 20.9724 30.7248 20.9724Z" fill="#717171"/>
</svg>
