<svg width="13" height="24" viewBox="0 0 13 24" fill="none" xmlns="http://www.w3.org/2000/svg">
<path d="M0.588956 13.315H3.32936V24.5968C3.32936 24.8195 3.50984 25 3.73258 25H8.37904C8.60178 25 8.78226 24.8195 8.78226 24.5968V13.3681H11.9326C12.1374 13.3681 12.3098 13.2144 12.3331 13.011L12.8116 8.85758C12.8248 8.74331 12.7886 8.62887 12.7121 8.54315C12.6356 8.45734 12.5261 8.40823 12.4111 8.40823H8.78242V5.80468C8.78242 5.01984 9.205 4.62185 10.0386 4.62185C10.1573 4.62185 12.4111 4.62185 12.4111 4.62185C12.6339 4.62185 12.8144 4.44129 12.8144 4.21863V0.40621C12.8144 0.183468 12.6339 0.00298387 12.4111 0.00298387H9.14138C9.11831 0.00185484 9.0671 0 8.99162 0C8.42428 0 6.45226 0.111371 4.89452 1.54444C3.16855 3.1325 3.40847 5.03395 3.46581 5.36363V8.40814H0.588956C0.366214 8.40814 0.18573 8.58863 0.18573 8.81137V12.9117C0.18573 13.1344 0.366214 13.315 0.588956 13.315Z" fill="#717171"/>
</svg>
